<?xml version="1.0" encoding="utf-8"?>
<svg viewBox="4.078 131.156 489.969 180.313" xmlns="http://www.w3.org/2000/svg" xmlns:bx="https://boxy-svg.com">
  <defs>
    <filter id="drop-shadow-filter-0" x="-500%" y="-500%" width="1000%" height="1000%" bx:preset="drop-shadow 1 4 4 0 0.24 rgba(0,0,0,0.3)">
      <feGaussianBlur in="SourceAlpha" stdDeviation="0"/>
      <feOffset dx="4" dy="4"/>
      <feComponentTransfer result="offsetblur">
        <feFuncA id="spread-ctrl" type="linear" slope="0.48"/>
      </feComponentTransfer>
      <feFlood flood-color="rgba(0,0,0,0.3)"/>
      <feComposite in2="offsetblur" operator="in"/>
      <feMerge>
        <feMergeNode/>
        <feMergeNode in="SourceGraphic"/>
      </feMerge>
    </filter>
    <filter id="drop-shadow-filter-1" x="-500%" y="-500%" width="1000%" height="1000%" bx:preset="drop-shadow 1 4 4 0 0.5 rgba(0,0,0,0.3)">
      <feGaussianBlur in="SourceAlpha" stdDeviation="0"/>
      <feOffset dx="4" dy="4"/>
      <feComponentTransfer result="offsetblur">
        <feFuncA id="spread-ctrl" type="linear" slope="1"/>
      </feComponentTransfer>
      <feFlood flood-color="rgba(0,0,0,0.3)"/>
      <feComposite in2="offsetblur" operator="in"/>
      <feMerge>
        <feMergeNode/>
        <feMergeNode in="SourceGraphic"/>
      </feMerge>
    </filter>
  </defs>
  <path d="M 99.448 216.869 L 99.448 260.669 C 95.495 265.062 89.708 268.602 82.088 271.289 C 74.475 273.969 66.125 275.309 57.038 275.309 C 43.078 275.309 31.921 271.039 23.568 262.499 C 15.221 253.952 10.755 242.062 10.168 226.829 L 10.098 217.599 C 10.098 207.099 11.951 197.932 15.658 190.099 C 19.371 182.259 24.681 176.229 31.588 172.009 C 38.501 167.782 46.498 165.669 55.578 165.669 C 68.858 165.669 79.171 168.709 86.518 174.789 C 93.871 180.869 98.158 189.939 99.378 201.999 L 74.618 201.999 C 73.738 196.039 71.835 191.792 68.908 189.259 C 65.975 186.719 61.825 185.449 56.458 185.449 C 50.011 185.449 45.031 188.182 41.518 193.649 C 37.998 199.116 36.215 206.929 36.168 217.089 L 36.168 223.529 C 36.168 234.176 37.988 242.172 41.628 247.519 C 45.261 252.866 50.985 255.539 58.798 255.539 C 65.491 255.539 70.471 254.049 73.738 251.069 L 73.738 234.519 L 55.868 234.519 L 55.868 216.869 L 99.448 216.869 ZM 151.587 275.309 C 139.434 275.309 129.597 271.686 122.077 264.439 C 114.557 257.186 110.797 247.749 110.797 236.129 L 110.797 234.079 C 110.797 225.972 112.297 218.819 115.297 212.619 C 118.304 206.419 122.687 201.622 128.447 198.229 C 134.207 194.836 141.044 193.139 148.957 193.139 C 160.091 193.139 168.877 196.592 175.317 203.499 C 181.764 210.406 184.987 220.036 184.987 232.389 L 184.987 241.989 L 135.917 241.989 C 136.797 246.429 138.727 249.919 141.707 252.459 C 144.681 254.999 148.537 256.269 153.277 256.269 C 161.091 256.269 167.194 253.536 171.587 248.069 L 182.867 261.399 C 179.787 265.646 175.427 269.026 169.787 271.539 C 164.147 274.052 158.081 275.309 151.587 275.309 Z M 148.807 212.179 C 141.581 212.179 137.284 216.966 135.917 226.539 L 160.817 226.539 L 160.817 224.629 C 160.917 220.676 159.917 217.612 157.817 215.439 C 155.717 213.266 152.714 212.179 148.807 212.179 ZM 191.797 233.639 C 191.797 221.092 194.507 211.206 199.927 203.979 C 205.347 196.752 212.913 193.139 222.627 193.139 C 229.707 193.139 235.663 195.922 240.497 201.489 L 240.497 161.349 L 265.257 161.349 L 265.257 273.849 L 243.067 273.849 L 241.817 265.349 C 236.743 271.989 230.3 275.309 222.487 275.309 C 213.06 275.309 205.587 271.696 200.067 264.469 C 194.553 257.249 191.797 246.972 191.797 233.639 Z M 216.547 230.639 L 216.477 235.179 C 216.477 249.239 220.58 256.269 228.787 256.269 C 234.253 256.269 238.157 253.976 240.497 249.389 L 240.497 219.209 C 238.257 214.522 234.4 212.179 228.927 212.179 C 221.313 212.179 217.187 218.332 216.547 230.639 Z" transform="matrix(1, 0, 0, 1, 0, 0)" style="fill: rgb(0, 221, 255); white-space: pre; filter: url(#drop-shadow-filter-0);"/>
  <path d="M 327.204 274.012 L 326.474 265.442 C 321.247 272.129 314.191 275.472 305.304 275.472 C 296.611 275.472 290.031 272.945 285.564 267.892 C 281.097 262.839 278.864 255.575 278.864 246.102 L 278.864 194.762 L 303.544 194.762 L 303.544 246.252 C 303.544 253.039 306.841 256.432 313.434 256.432 C 319.094 256.432 323.121 254.405 325.514 250.352 L 325.514 194.762 L 350.344 194.762 L 350.344 274.012 L 327.204 274.012 ZM 412.233 194.182 L 411.793 217.102 L 403.663 216.512 C 395.896 216.512 390.916 218.955 388.723 223.842 L 388.723 274.012 L 364.033 274.012 L 364.033 194.762 L 387.183 194.762 L 387.983 204.942 C 392.136 197.182 397.923 193.302 405.343 193.302 C 407.983 193.302 410.28 193.595 412.233 194.182 ZM 457.634 275.472 C 445.48 275.472 435.644 271.849 428.124 264.602 C 420.604 257.349 416.844 247.912 416.844 236.292 L 416.844 234.242 C 416.844 226.135 418.344 218.982 421.344 212.782 C 424.35 206.582 428.734 201.785 434.494 198.392 C 440.254 194.999 447.09 193.302 455.004 193.302 C 466.137 193.302 474.924 196.755 481.364 203.662 C 487.81 210.569 491.034 220.199 491.034 232.552 L 491.034 242.152 L 441.964 242.152 C 442.844 246.592 444.774 250.082 447.754 252.622 C 450.727 255.162 454.584 256.432 459.324 256.432 C 467.137 256.432 473.24 253.699 477.634 248.232 L 488.914 261.562 C 485.834 265.809 481.474 269.189 475.834 271.702 C 470.194 274.215 464.127 275.472 457.634 275.472 Z M 454.854 212.342 C 447.627 212.342 443.33 217.129 441.964 226.702 L 466.864 226.702 L 466.864 224.792 C 466.964 220.839 465.964 217.775 463.864 215.602 C 461.764 213.429 458.76 212.342 454.854 212.342 Z" transform="matrix(1, 0, 0, 1, 0, 0)" style="fill: rgb(42, 134, 255); white-space: pre; filter: url(#drop-shadow-filter-1);"/>
  <path d="M 200.172 264.45 C 199.301 263.309 196.179 260.625 197.486 258.726 C 200.216 254.759 210.956 252.619 220.736 252.948 C 221.537 252.975 223.037 254.891 223.779 255.178 C 229.098 257.234 233.523 256.279 237.539 253.423 C 240.15 251.566 240.404 245.417 240.572 239.241 C 240.774 231.766 240.398 235.663 240.869 233.966 C 245.52 217.21 265.203 187.819 265.203 187.819 L 265.246 203.364 L 265.362 273.83 L 243.172 273.83 L 241.922 265.33 C 236.849 271.97 230.405 275.29 222.592 275.29 C 213.165 275.29 205.692 271.677 200.172 264.45 Z" style="fill: rgb(42, 134, 255); white-space: pre;">
    <title>Divider</title>
  </path>
</svg>