<?xml version="1.0" encoding="utf-8"?>
<svg viewBox="199.998 335.055 89.739 109.545" xmlns="http://www.w3.org/2000/svg">
  <path d="M 289.593 386.16 L 289.593 429.96 C 285.64 434.353 279.853 437.893 272.233 440.58 C 264.62 443.26 256.27 444.6 247.183 444.6 C 233.223 444.6 222.066 440.33 213.713 431.79 C 205.366 423.243 200.9 411.353 200.313 396.12 L 200.082 391.077 L 226.796 405.655 C 226.829 408.333 228.133 411.463 231.773 416.81 C 235.406 422.157 241.13 424.83 248.943 424.83 C 255.636 424.83 260.616 423.34 263.883 420.36 L 263.883 403.81 L 246.013 403.81 L 246.013 386.16 L 289.593 386.16 Z" style="fill: rgb(0, 221, 255); white-space: pre;">
    <title>G bottom</title>
  </path>
  <path d="M 226.982 399.182 L 199.998 384.691 C 199.998 374.191 202.31 367.318 206.017 359.485 C 209.73 351.645 215.04 345.615 221.947 341.395 C 228.86 337.168 236.857 335.055 245.937 335.055 C 259.217 335.055 269.53 338.095 276.877 344.175 C 284.23 350.255 288.517 359.325 289.737 371.385 L 264.977 371.385 C 264.097 365.425 262.194 361.178 259.267 358.645 C 256.334 356.105 252.184 354.835 246.817 354.835 C 240.37 354.835 235.39 357.568 231.877 363.035 C 228.357 368.502 226.574 376.315 226.527 386.475 L 226.527 392.915 C 226.527 395.99 226.982 399.182 226.982 399.182 Z" style="fill: rgb(42, 134, 255); white-space: pre;">
    <title>G top</title>
  </path>
</svg>