<?xml version="1.0" encoding="utf-8"?>
<svg viewBox="4.078 131.203 489.969 180.328" xmlns="http://www.w3.org/2000/svg" xmlns:bx="https://boxy-svg.com">
  <defs>
    <filter id="drop-shadow-filter-0" x="-500%" y="-500%" width="1000%" height="1000%" bx:preset="drop-shadow 1 4 4 0 0.24 rgba(0,0,0,0.3)">
      <feGaussianBlur in="SourceAlpha" stdDeviation="0"/>
      <feOffset dx="4" dy="4"/>
      <feComponentTransfer result="offsetblur">
        <feFuncA id="spread-ctrl" type="linear" slope="0.48"/>
      </feComponentTransfer>
      <feFlood flood-color="rgba(0,0,0,0.3)"/>
      <feComposite in2="offsetblur" operator="in"/>
      <feMerge>
        <feMergeNode/>
        <feMergeNode in="SourceGraphic"/>
      </feMerge>
    </filter>
    <filter id="drop-shadow-filter-1" x="-500%" y="-500%" width="1000%" height="1000%" bx:preset="drop-shadow 1 4 4 0 0.5 rgba(0,0,0,0.3)">
      <feGaussianBlur in="SourceAlpha" stdDeviation="0"/>
      <feOffset dx="4" dy="4"/>
      <feComponentTransfer result="offsetblur">
        <feFuncA id="spread-ctrl" type="linear" slope="1"/>
      </feComponentTransfer>
      <feFlood flood-color="rgba(0,0,0,0.3)"/>
      <feComposite in2="offsetblur" operator="in"/>
      <feMerge>
        <feMergeNode/>
        <feMergeNode in="SourceGraphic"/>
      </feMerge>
    </filter>
  </defs>
  <path d="M 99.448 216.869 L 99.448 260.669 C 95.495 265.062 89.708 268.602 82.088 271.289 C 74.475 273.969 66.125 275.309 57.038 275.309 C 43.078 275.309 31.921 271.039 23.568 262.499 C 15.221 253.952 10.755 242.062 10.168 226.829 L 10.098 217.599 C 10.098 207.099 11.951 197.932 15.658 190.099 C 19.371 182.259 24.681 176.229 31.588 172.009 C 38.501 167.782 46.498 165.669 55.578 165.669 C 68.858 165.669 79.171 168.709 86.518 174.789 C 93.871 180.869 98.158 189.939 99.378 201.999 L 74.618 201.999 C 73.738 196.039 71.835 191.792 68.908 189.259 C 65.975 186.719 61.825 185.449 56.458 185.449 C 50.011 185.449 45.031 188.182 41.518 193.649 C 37.998 199.116 36.215 206.929 36.168 217.089 L 36.168 223.529 C 36.168 234.176 37.988 242.172 41.628 247.519 C 45.261 252.866 50.985 255.539 58.798 255.539 C 65.491 255.539 70.471 254.049 73.738 251.069 L 73.738 234.519 L 55.868 234.519 L 55.868 216.869 L 99.448 216.869 ZM 151.586 275.309 C 139.432 275.309 129.596 271.686 122.076 264.439 C 114.556 257.186 110.796 247.749 110.796 236.129 L 110.796 234.079 C 110.796 225.972 112.296 218.819 115.296 212.619 C 118.302 206.419 122.686 201.622 128.446 198.229 C 134.206 194.836 141.042 193.139 148.956 193.139 C 160.089 193.139 168.876 196.592 175.316 203.499 C 181.762 210.406 184.986 220.036 184.986 232.389 L 184.986 241.989 L 135.916 241.989 C 136.796 246.429 138.726 249.919 141.706 252.459 C 144.679 254.999 148.536 256.269 153.276 256.269 C 161.089 256.269 167.192 253.536 171.586 248.069 L 182.866 261.399 C 179.786 265.646 175.426 269.026 169.786 271.539 C 164.146 274.052 158.079 275.309 151.586 275.309 Z M 148.806 212.179 C 141.579 212.179 137.282 216.966 135.916 226.539 L 160.816 226.539 L 160.816 224.629 C 160.916 220.676 159.916 217.612 157.816 215.439 C 155.716 213.266 152.712 212.179 148.806 212.179 ZM 191.794 233.639 C 191.794 221.092 194.504 211.206 199.924 203.979 C 205.344 196.752 212.911 193.139 222.624 193.139 C 229.704 193.139 235.661 195.922 240.494 201.489 L 240.494 161.349 L 265.254 161.349 L 265.254 273.849 L 243.064 273.849 L 241.814 265.349 C 236.741 271.989 230.298 275.309 222.484 275.309 C 213.058 275.309 205.584 271.696 200.064 264.469 C 194.551 257.249 191.794 246.972 191.794 233.639 Z M 216.544 230.639 L 216.474 235.179 C 216.474 249.239 220.578 256.269 228.784 256.269 C 234.251 256.269 238.154 253.976 240.494 249.389 L 240.494 219.209 C 238.254 214.522 234.398 212.179 228.924 212.179 C 221.311 212.179 217.184 218.332 216.544 230.639 Z" transform="matrix(1, 0, 0, 1, 0, 0)" style="fill: rgb(0, 221, 255); white-space: pre; filter: url(#drop-shadow-filter-0);"/>
  <path d="M 327.204 274.012 L 326.474 265.442 C 321.247 272.129 314.191 275.472 305.304 275.472 C 296.611 275.472 290.031 272.945 285.564 267.892 C 281.097 262.839 278.864 255.575 278.864 246.102 L 278.864 194.762 L 303.544 194.762 L 303.544 246.252 C 303.544 253.039 306.841 256.432 313.434 256.432 C 319.094 256.432 323.121 254.405 325.514 250.352 L 325.514 194.762 L 350.344 194.762 L 350.344 274.012 L 327.204 274.012 ZM 412.232 194.182 L 411.792 217.102 L 403.662 216.512 C 395.895 216.512 390.915 218.955 388.722 223.842 L 388.722 274.012 L 364.032 274.012 L 364.032 194.762 L 387.182 194.762 L 387.982 204.942 C 392.135 197.182 397.922 193.302 405.342 193.302 C 407.982 193.302 410.279 193.595 412.232 194.182 ZM 457.632 275.472 C 445.478 275.472 435.642 271.849 428.122 264.602 C 420.602 257.349 416.842 247.912 416.842 236.292 L 416.842 234.242 C 416.842 226.135 418.342 218.982 421.342 212.782 C 424.348 206.582 428.732 201.785 434.492 198.392 C 440.252 194.999 447.088 193.302 455.002 193.302 C 466.135 193.302 474.922 196.755 481.362 203.662 C 487.808 210.569 491.032 220.199 491.032 232.552 L 491.032 242.152 L 441.962 242.152 C 442.842 246.592 444.772 250.082 447.752 252.622 C 450.725 255.162 454.582 256.432 459.322 256.432 C 467.135 256.432 473.238 253.699 477.632 248.232 L 488.912 261.562 C 485.832 265.809 481.472 269.189 475.832 271.702 C 470.192 274.215 464.125 275.472 457.632 275.472 Z M 454.852 212.342 C 447.625 212.342 443.328 217.129 441.962 226.702 L 466.862 226.702 L 466.862 224.792 C 466.962 220.839 465.962 217.775 463.862 215.602 C 461.762 213.429 458.758 212.342 454.852 212.342 Z" transform="matrix(1, 0, 0, 1, 0, 0)" style="fill: rgb(42, 134, 255); white-space: pre; filter: url(#drop-shadow-filter-1);"/>
  <path d="M 210.243 272.558 C 210.243 272.558 223.037 254.891 223.779 255.178 C 229.098 257.234 233.523 256.279 237.539 253.423 C 240.15 251.566 240.404 245.417 240.572 239.241 C 240.774 231.766 240.869 233.966 240.869 233.966 L 265.203 187.819 L 265.246 203.364 L 265.362 273.83 L 243.172 273.83 L 241.922 265.33 C 236.849 271.97 230.405 275.29 222.592 275.29 C 213.165 275.29 210.243 272.558 210.243 272.558 Z" style="fill: rgb(42, 134, 255); white-space: pre;">
    <title>Divider</title>
  </path>
</svg>