<?xml version="1.0" encoding="UTF-8"?>
<svg viewBox="4.078 131.2 489.97 180.33" xmlns="http://www.w3.org/2000/svg" xmlnsBx="https://boxy-svg.com">
<defs>
<filter id="b" x="-500%" y="-500%" width="1e3%" height="1e3%" bxPreset="drop-shadow 1 4 4 0 0.24 rgba(0,0,0,0.3)">
<feGaussianBlur in="SourceAlpha"/>
<feOffset dx="4" dy="4"/>
<feComponentTransfer result="offsetblur">
<feFuncA id="c" slope="0.48" type="linear"/>
</feComponentTransfer>
<feFlood flood-color="rgba(0,0,0,0.3)"/>
<feComposite in2="offsetblur" operator="in"/>
<feMerge>
<feMergeNode/>
<feMergeNode in="SourceGraphic"/>
</feMerge>
</filter>
<filter id="a" x="-500%" y="-500%" width="1e3%" height="1e3%" bxPreset="drop-shadow 1 4 4 0 0.5 rgba(0,0,0,0.3)">
<feGaussianBlur in="SourceAlpha"/>
<feOffset dx="4" dy="4"/>
<feComponentTransfer result="offsetblur">
<feFuncA slope="1" type="linear"/>
</feComponentTransfer>
<feFlood flood-color="rgba(0,0,0,0.3)"/>
<feComposite in2="offsetblur" operator="in"/>
<feMerge>
<feMergeNode/>
<feMergeNode in="SourceGraphic"/>
</feMerge>
</filter>
</defs>
<path d="m99.448 216.87v43.8c-3.953 4.393-9.74 7.933-17.36 10.62-7.613 2.68-15.963 4.02-25.05 4.02-13.96 0-25.117-4.27-33.47-12.81-8.347-8.547-12.813-20.437-13.4-35.67l-0.07-9.23c0-10.5 1.853-19.667 5.56-27.5 3.713-7.84 9.023-13.87 15.93-18.09 6.913-4.227 14.91-6.34 23.99-6.34 13.28 0 23.593 3.04 30.94 9.12 7.353 6.08 11.64 15.15 12.86 27.21h-24.76c-0.88-5.96-2.783-10.207-5.71-12.74-2.933-2.54-7.083-3.81-12.45-3.81-6.447 0-11.427 2.733-14.94 8.2-3.52 5.467-5.303 13.28-5.35 23.44v6.44c0 10.647 1.82 18.643 5.46 23.99 3.633 5.347 9.357 8.02 17.17 8.02 6.693 0 11.673-1.49 14.94-4.47v-16.55h-17.87v-17.65h43.58zm52.138 58.44c-12.154 0-21.99-3.623-29.51-10.87-7.52-7.253-11.28-16.69-11.28-28.31v-2.05c0-8.107 1.5-15.26 4.5-21.46 3.006-6.2 7.39-10.997 13.15-14.39s12.596-5.09 20.51-5.09c11.133 0 19.92 3.453 26.36 10.36 6.446 6.907 9.67 16.537 9.67 28.89v9.6h-49.07c0.88 4.44 2.81 7.93 5.79 10.47 2.973 2.54 6.83 3.81 11.57 3.81 7.813 0 13.916-2.733 18.31-8.2l11.28 13.33c-3.08 4.247-7.44 7.627-13.08 10.14s-11.707 3.77-18.2 3.77zm-2.78-63.13c-7.227 0-11.524 4.787-12.89 14.36h24.9v-1.91c0.1-3.953-0.9-7.017-3-9.19s-5.104-3.26-9.01-3.26zm42.988 21.46c0-12.547 2.71-22.433 8.13-29.66s12.987-10.84 22.7-10.84c7.08 0 13.037 2.783 17.87 8.35v-40.14h24.76v112.5h-22.19l-1.25-8.5c-5.073 6.64-11.516 9.96-19.33 9.96-9.426 0-16.9-3.613-22.42-10.84-5.513-7.22-8.27-17.497-8.27-30.83zm24.75-3-0.07 4.54c0 14.06 4.104 21.09 12.31 21.09 5.467 0 9.37-2.293 11.71-6.88v-30.18c-2.24-4.687-6.096-7.03-11.57-7.03-7.613 0-11.74 6.153-12.38 18.46z" fill="#0df" filter="url(#b)" style="white-space:pre"/>
<path d="m327.2 274.01-0.73-8.57c-5.227 6.687-12.283 10.03-21.17 10.03-8.693 0-15.273-2.527-19.74-7.58s-6.7-12.317-6.7-21.79v-51.34h24.68v51.49c0 6.787 3.297 10.18 9.89 10.18 5.66 0 9.687-2.027 12.08-6.08v-55.59h24.83v79.25h-23.14zm85.028-79.83-0.44 22.92-8.13-0.59c-7.767 0-12.747 2.443-14.94 7.33v50.17h-24.69v-79.25h23.15l0.8 10.18c4.153-7.76 9.94-11.64 17.36-11.64 2.64 0 4.937 0.293 6.89 0.88zm45.4 81.29c-12.154 0-21.99-3.623-29.51-10.87-7.52-7.253-11.28-16.69-11.28-28.31v-2.05c0-8.107 1.5-15.26 4.5-21.46 3.006-6.2 7.39-10.997 13.15-14.39s12.596-5.09 20.51-5.09c11.133 0 19.92 3.453 26.36 10.36 6.446 6.907 9.67 16.537 9.67 28.89v9.6h-49.07c0.88 4.44 2.81 7.93 5.79 10.47 2.973 2.54 6.83 3.81 11.57 3.81 7.813 0 13.916-2.733 18.31-8.2l11.28 13.33c-3.08 4.247-7.44 7.627-13.08 10.14s-11.707 3.77-18.2 3.77zm-2.78-63.13c-7.227 0-11.524 4.787-12.89 14.36h24.9v-1.91c0.1-3.953-0.9-7.017-3-9.19s-5.104-3.26-9.01-3.26z" fill="#2a86ff" filter="url(#a)" style="white-space:pre"/>
<path d="m210.24 272.56s12.794-17.667 13.536-17.38c5.319 2.056 9.744 1.101 13.76-1.755 2.611-1.857 2.865-8.006 3.033-14.182 0.202-7.475 0.297-5.275 0.297-5.275l24.334-46.147 0.043 15.545 0.116 70.466h-22.19l-1.25-8.5c-5.073 6.64-11.517 9.96-19.33 9.96-9.427 0-12.349-2.732-12.349-2.732z" fill="#2a86ff" style="white-space:pre">
<title>Divider</title>
</path>
</svg>